<svg xmlns="http://www.w3.org/2000/svg" xmlns:xlink="http://www.w3.org/1999/xlink" width="500" zoomAndPan="magnify" viewBox="0 0 375 374.999991" height="500" preserveAspectRatio="xMidYMid meet" version="1.0"><defs><g><g id="id1"/><g id="id2"/></g><clipPath id="id3"><path d="M 132.015625 114 L 138 114 L 138 120 L 132.015625 120 Z M 132.015625 114 " clip-rule="nonzero"/></clipPath><clipPath id="id4"><path d="M 160 110.019531 L 171 110.019531 L 171 121 L 160 121 Z M 160 110.019531 " clip-rule="nonzero"/></clipPath><clipPath id="id5"><path d="M 153 117 L 243.015625 117 L 243.015625 207.519531 L 153 207.519531 Z M 153 117 " clip-rule="nonzero"/></clipPath></defs><path fill="rgb(25.099182%, 72.549438%, 23.529053%)" d="M 143.808594 124.351562 L 149.972656 124.351562 L 149.972656 118.210938 L 143.808594 118.210938 L 143.808594 124.351562 " fill-opacity="1" fill-rule="nonzero"/><g clip-path="url(#id3)"><path fill="rgb(25.099182%, 72.549438%, 23.529053%)" d="M 132.015625 119.09375 L 137.101562 119.09375 L 137.101562 114.027344 L 132.015625 114.027344 L 132.015625 119.09375 " fill-opacity="1" fill-rule="nonzero"/></g><g clip-path="url(#id4)"><path fill="rgb(25.099182%, 72.549438%, 23.529053%)" d="M 160.246094 120.257812 L 170.523438 120.257812 L 170.523438 110.023438 L 160.246094 110.023438 L 160.246094 120.257812 " fill-opacity="1" fill-rule="nonzero"/></g><path fill="rgb(25.099182%, 72.549438%, 23.529053%)" d="M 141.753906 146.355469 L 152.027344 146.355469 L 152.027344 136.121094 L 141.753906 136.121094 L 141.753906 146.355469 " fill-opacity="1" fill-rule="nonzero"/><path fill="rgb(25.099182%, 72.549438%, 23.529053%)" d="M 134.558594 136.121094 L 141.753906 136.121094 L 141.753906 128.957031 L 134.558594 128.957031 L 134.558594 136.121094 " fill-opacity="1" fill-rule="nonzero"/><g clip-path="url(#id5)"><path fill="rgb(25.099182%, 72.549438%, 23.529053%)" d="M 164.917969 172.65625 C 164.917969 172.65625 182.953125 170.664062 189.699219 192.929688 C 186.222656 192.1875 178.429688 189.4375 170.996094 179.246094 C 170.996094 179.246094 177.261719 192.390625 190.242188 194.882812 C 164.171875 199.09375 164.917969 172.65625 164.917969 172.65625 Z M 184.136719 146.355469 L 173.863281 146.355469 L 173.863281 136.121094 L 184.136719 136.121094 Z M 220.097656 171.226562 C 220.097656 171.226562 225.625 188.445312 205.046875 199.429688 C 205.089844 195.890625 206.257812 187.738281 214.816406 178.464844 C 214.816406 178.464844 203.117188 187.183594 203.230469 200.351562 C 193.9375 175.726562 220.097656 171.226562 220.097656 171.226562 Z M 153.054688 162.710938 C 153.054688 187.457031 173.191406 207.515625 198.035156 207.515625 C 198.570312 207.515625 199.101562 207.503906 199.632812 207.484375 C 191.339844 197.082031 188.410156 183.542969 191.289062 170.898438 C 184.691406 142.027344 217.046875 134.980469 217.046875 134.980469 C 217.046875 134.980469 226.347656 160.074219 196.648438 177.65625 C 196.476562 172.421875 197.667969 160.292969 209.714844 146.027344 C 209.714844 146.027344 194.773438 157.878906 194.046875 175.285156 C 193.570312 186.726562 198.117188 198.15625 206.753906 206.671875 C 227.421875 202.625 243.015625 184.484375 243.015625 162.710938 C 243.015625 137.964844 222.878906 117.90625 198.035156 117.90625 C 189.136719 117.90625 180.84375 120.480469 173.863281 124.921875 L 173.863281 131.773438 L 165.503906 131.773438 C 165.464844 131.8125 165.425781 131.855469 165.382812 131.894531 L 165.382812 131.773438 L 163.585938 131.773438 L 163.585938 127.167969 L 155.109375 127.167969 L 155.109375 136.121094 L 165.382812 136.121094 L 165.382812 146.355469 L 156.148438 146.355469 C 154.152344 151.421875 153.054688 156.9375 153.054688 162.710938 " fill-opacity="1" fill-rule="nonzero"/></g><g fill="rgb(0%, 0%, 0%)" fill-opacity="1"><g transform="translate(46.03539, 270.950461)"><g><path d="M 2.296875 -17.5 L 9.90625 -17.5 C 11.71875 -17.5 13.148438 -17.109375 14.203125 -16.328125 C 15.253906 -15.554688 15.78125 -14.488281 15.78125 -13.125 C 15.78125 -12.144531 15.503906 -11.304688 14.953125 -10.609375 C 14.398438 -9.921875 13.648438 -9.457031 12.703125 -9.21875 C 13.867188 -9.019531 14.785156 -8.53125 15.453125 -7.75 C 16.117188 -6.96875 16.453125 -5.984375 16.453125 -4.796875 C 16.453125 -3.296875 15.882812 -2.117188 14.75 -1.265625 C 13.613281 -0.421875 12.054688 0 10.078125 0 L 2.296875 0 Z M 5.25 -14.875 L 5.25 -10.25 L 9.75 -10.25 C 10.6875 -10.25 11.421875 -10.457031 11.953125 -10.875 C 12.484375 -11.289062 12.75 -11.863281 12.75 -12.59375 C 12.75 -13.332031 12.484375 -13.894531 11.953125 -14.28125 C 11.429688 -14.675781 10.695312 -14.875 9.75 -14.875 Z M 5.25 -7.65625 L 5.25 -2.625 L 9.75 -2.625 C 10.914062 -2.625 11.816406 -2.84375 12.453125 -3.28125 C 13.097656 -3.726562 13.421875 -4.359375 13.421875 -5.171875 C 13.421875 -5.941406 13.09375 -6.546875 12.4375 -6.984375 C 11.789062 -7.429688 10.894531 -7.65625 9.75 -7.65625 Z M 5.25 -7.65625 "/></g></g></g><g fill="rgb(0%, 0%, 0%)" fill-opacity="1"><g transform="translate(63.68259, 270.950461)"><g><path d="M 5.25 0 L 2.296875 0 L 2.296875 -17.5 L 5.25 -17.5 Z M 5.25 0 "/></g></g></g><g fill="rgb(0%, 0%, 0%)" fill-opacity="1"><g transform="translate(71.231398, 270.950461)"><g><path d="M 3.515625 -15.03125 C 5.304688 -16.726562 7.507812 -17.578125 10.125 -17.578125 C 12.738281 -17.578125 14.9375 -16.726562 16.71875 -15.03125 C 18.507812 -13.34375 19.40625 -11.25 19.40625 -8.75 C 19.40625 -6.25 18.507812 -4.144531 16.71875 -2.4375 C 14.9375 -0.726562 12.738281 0.125 10.125 0.125 C 7.507812 0.125 5.304688 -0.726562 3.515625 -2.4375 C 1.734375 -4.144531 0.84375 -6.25 0.84375 -8.75 C 0.84375 -11.25 1.734375 -13.34375 3.515625 -15.03125 Z M 10.15625 -14.921875 C 8.414062 -14.921875 6.925781 -14.320312 5.6875 -13.125 C 4.457031 -11.9375 3.84375 -10.476562 3.84375 -8.75 C 3.84375 -7.019531 4.460938 -5.550781 5.703125 -4.34375 C 6.953125 -3.132812 8.429688 -2.53125 10.140625 -2.53125 C 11.859375 -2.53125 13.328125 -3.132812 14.546875 -4.34375 C 15.765625 -5.550781 16.375 -7.019531 16.375 -8.75 C 16.375 -10.476562 15.765625 -11.9375 14.546875 -13.125 C 13.328125 -14.320312 11.863281 -14.921875 10.15625 -14.921875 Z M 10.15625 -14.921875 "/></g></g></g><g fill="rgb(0%, 0%, 0%)" fill-opacity="1"><g transform="translate(91.478193, 270.950461)"><g><path d="M 2.296875 -17.5 L 9.46875 -17.5 C 12.09375 -17.5 14.257812 -16.671875 15.96875 -15.015625 C 17.675781 -13.367188 18.53125 -11.28125 18.53125 -8.75 C 18.53125 -6.21875 17.671875 -4.125 15.953125 -2.46875 C 14.234375 -0.820312 12.050781 0 9.40625 0 L 2.296875 0 Z M 5.25 -14.84375 L 5.25 -2.65625 L 9.546875 -2.65625 C 11.265625 -2.65625 12.691406 -3.222656 13.828125 -4.359375 C 14.972656 -5.503906 15.546875 -6.957031 15.546875 -8.71875 C 15.546875 -10.488281 14.957031 -11.953125 13.78125 -13.109375 C 12.613281 -14.265625 11.160156 -14.84375 9.421875 -14.84375 Z M 5.25 -14.84375 "/></g></g></g><g fill="rgb(0%, 0%, 0%)" fill-opacity="1"><g transform="translate(110.850121, 270.950461)"><g><path d="M 5.25 0 L 2.296875 0 L 2.296875 -17.5 L 5.25 -17.5 Z M 5.25 0 "/></g></g></g><g fill="rgb(0%, 0%, 0%)" fill-opacity="1"><g transform="translate(118.39893, 270.950461)"><g><path d="M 10.09375 0 L 7.046875 0 L 0.078125 -17.5 L 3.25 -17.5 L 8.65625 -3.28125 L 14.09375 -17.5 L 17.171875 -17.5 Z M 10.09375 0 "/></g></g></g><g fill="rgb(0%, 0%, 0%)" fill-opacity="1"><g transform="translate(135.646193, 270.950461)"><g><path d="M 14.796875 -14.84375 L 5.25 -14.84375 L 5.25 -10.125 L 13.796875 -10.125 L 13.796875 -7.46875 L 5.25 -7.46875 L 5.25 -2.65625 L 15.09375 -2.65625 L 15.09375 0 L 2.296875 0 L 2.296875 -17.5 L 14.796875 -17.5 Z M 14.796875 -14.84375 "/></g></g></g><g fill="rgb(0%, 0%, 0%)" fill-opacity="1"><g transform="translate(152.043596, 270.950461)"><g><path d="M 13.40625 0 L 10.203125 -5.296875 C 10.035156 -5.285156 9.769531 -5.28125 9.40625 -5.28125 L 5.25 -5.28125 L 5.25 0 L 2.296875 0 L 2.296875 -17.5 L 9.40625 -17.5 C 11.632812 -17.5 13.363281 -16.976562 14.59375 -15.9375 C 15.832031 -14.894531 16.453125 -13.425781 16.453125 -11.53125 C 16.453125 -10.125 16.140625 -8.9375 15.515625 -7.96875 C 14.890625 -7.007812 13.992188 -6.300781 12.828125 -5.84375 L 16.75 0 Z M 5.25 -7.921875 L 9.40625 -7.921875 C 12.238281 -7.921875 13.65625 -9.097656 13.65625 -11.453125 C 13.65625 -13.710938 12.238281 -14.84375 9.40625 -14.84375 L 5.25 -14.84375 Z M 5.25 -7.921875 "/></g></g></g><g fill="rgb(0%, 0%, 0%)" fill-opacity="1"><g transform="translate(170.115738, 270.950461)"><g><path d="M 8.046875 -17.625 C 10.316406 -17.625 12.359375 -17.023438 14.171875 -15.828125 L 12.953125 -13.21875 C 11.171875 -14.300781 9.460938 -14.84375 7.828125 -14.84375 C 6.941406 -14.84375 6.242188 -14.6875 5.734375 -14.375 C 5.222656 -14.0625 4.96875 -13.613281 4.96875 -13.03125 C 4.96875 -12.445312 5.203125 -11.945312 5.671875 -11.53125 C 6.140625 -11.125 6.722656 -10.820312 7.421875 -10.625 C 8.117188 -10.4375 8.875 -10.195312 9.6875 -9.90625 C 10.507812 -9.613281 11.269531 -9.304688 11.96875 -8.984375 C 12.675781 -8.660156 13.257812 -8.148438 13.71875 -7.453125 C 14.175781 -6.765625 14.40625 -5.929688 14.40625 -4.953125 C 14.40625 -3.421875 13.789062 -2.195312 12.5625 -1.28125 C 11.332031 -0.363281 9.742188 0.09375 7.796875 0.09375 C 6.460938 0.09375 5.171875 -0.15625 3.921875 -0.65625 C 2.671875 -1.15625 1.582031 -1.828125 0.65625 -2.671875 L 1.921875 -5.21875 C 2.804688 -4.40625 3.773438 -3.773438 4.828125 -3.328125 C 5.890625 -2.890625 6.894531 -2.671875 7.84375 -2.671875 C 8.882812 -2.671875 9.691406 -2.859375 10.265625 -3.234375 C 10.835938 -3.609375 11.125 -4.128906 11.125 -4.796875 C 11.125 -5.398438 10.890625 -5.90625 10.421875 -6.3125 C 9.953125 -6.71875 9.367188 -7.015625 8.671875 -7.203125 C 7.972656 -7.398438 7.210938 -7.632812 6.390625 -7.90625 C 5.578125 -8.1875 4.820312 -8.476562 4.125 -8.78125 C 3.425781 -9.09375 2.84375 -9.585938 2.375 -10.265625 C 1.90625 -10.953125 1.671875 -11.78125 1.671875 -12.75 C 1.671875 -14.226562 2.253906 -15.410156 3.421875 -16.296875 C 4.585938 -17.179688 6.128906 -17.625 8.046875 -17.625 Z M 8.046875 -17.625 "/></g></g></g><g fill="rgb(0%, 0%, 0%)" fill-opacity="1"><g transform="translate(185.66328, 270.950461)"><g><path d="M 5.25 0 L 2.296875 0 L 2.296875 -17.5 L 5.25 -17.5 Z M 5.25 0 "/></g></g></g><g fill="rgb(0%, 0%, 0%)" fill-opacity="1"><g transform="translate(193.212088, 270.950461)"><g><path d="M 14.25 -14.84375 L 8.703125 -14.84375 L 8.703125 0 L 5.75 0 L 5.75 -14.84375 L 0.21875 -14.84375 L 0.21875 -17.5 L 14.25 -17.5 Z M 14.25 -14.84375 "/></g></g></g><g fill="rgb(0%, 0%, 0%)" fill-opacity="1"><g transform="translate(207.6848, 270.950461)"><g><path d="M 8.21875 -19.421875 L 5.171875 -21.875 L 8.125 -23.125 L 10.78125 -19.421875 Z M 13.59375 -3.953125 L 4.78125 -3.953125 L 3.09375 0 L 0.03125 0 L 7.75 -17.5 L 10.78125 -17.5 L 18.421875 0 L 15.28125 0 Z M 12.46875 -6.578125 L 9.171875 -14.34375 L 5.875 -6.578125 Z M 12.46875 -6.578125 "/></g></g></g><g fill="rgb(0%, 0%, 0%)" fill-opacity="1"><g transform="translate(226.131874, 270.950461)"><g/></g></g><g fill="rgb(0%, 0%, 0%)" fill-opacity="1"><g transform="translate(232.580848, 270.950461)"><g><path d="M 17.171875 -17.5 L 17.171875 -7.25 C 17.171875 -4.96875 16.492188 -3.164062 15.140625 -1.84375 C 13.796875 -0.53125 11.941406 0.125 9.578125 0.125 C 7.210938 0.125 5.347656 -0.53125 3.984375 -1.84375 C 2.628906 -3.164062 1.953125 -4.96875 1.953125 -7.25 L 1.953125 -17.5 L 4.90625 -17.5 L 4.90625 -7.25 C 4.90625 -5.78125 5.320312 -4.625 6.15625 -3.78125 C 7 -2.945312 8.144531 -2.53125 9.59375 -2.53125 C 11.03125 -2.53125 12.160156 -2.945312 12.984375 -3.78125 C 13.804688 -4.613281 14.21875 -5.769531 14.21875 -7.25 L 14.21875 -17.5 Z M 17.171875 -17.5 "/></g></g></g><g fill="rgb(0%, 0%, 0%)" fill-opacity="1"><g transform="translate(251.677832, 270.950461)"><g><path d="M 20.796875 0 L 18.078125 0 L 18.046875 -13.078125 L 12.53125 -1.828125 L 10.59375 -1.828125 L 5.078125 -13.078125 L 5.078125 0 L 2.296875 0 L 2.296875 -17.5 L 5.796875 -17.5 L 11.578125 -5.875 L 17.328125 -17.5 L 20.796875 -17.5 Z M 20.796875 0 "/></g></g></g><g fill="rgb(0%, 0%, 0%)" fill-opacity="1"><g transform="translate(274.799153, 270.950461)"><g><path d="M 2.296875 -17.5 L 9.90625 -17.5 C 11.71875 -17.5 13.148438 -17.109375 14.203125 -16.328125 C 15.253906 -15.554688 15.78125 -14.488281 15.78125 -13.125 C 15.78125 -12.144531 15.503906 -11.304688 14.953125 -10.609375 C 14.398438 -9.921875 13.648438 -9.457031 12.703125 -9.21875 C 13.867188 -9.019531 14.785156 -8.53125 15.453125 -7.75 C 16.117188 -6.96875 16.453125 -5.984375 16.453125 -4.796875 C 16.453125 -3.296875 15.882812 -2.117188 14.75 -1.265625 C 13.613281 -0.421875 12.054688 0 10.078125 0 L 2.296875 0 Z M 5.25 -14.875 L 5.25 -10.25 L 9.75 -10.25 C 10.6875 -10.25 11.421875 -10.457031 11.953125 -10.875 C 12.484375 -11.289062 12.75 -11.863281 12.75 -12.59375 C 12.75 -13.332031 12.484375 -13.894531 11.953125 -14.28125 C 11.429688 -14.675781 10.695312 -14.875 9.75 -14.875 Z M 5.25 -7.65625 L 5.25 -2.625 L 9.75 -2.625 C 10.914062 -2.625 11.816406 -2.84375 12.453125 -3.28125 C 13.097656 -3.726562 13.421875 -4.359375 13.421875 -5.171875 C 13.421875 -5.941406 13.09375 -6.546875 12.4375 -6.984375 C 11.789062 -7.429688 10.894531 -7.65625 9.75 -7.65625 Z M 5.25 -7.65625 "/></g></g></g><g fill="rgb(0%, 0%, 0%)" fill-opacity="1"><g transform="translate(292.446353, 270.950461)"><g><path d="M 13.40625 0 L 10.203125 -5.296875 C 10.035156 -5.285156 9.769531 -5.28125 9.40625 -5.28125 L 5.25 -5.28125 L 5.25 0 L 2.296875 0 L 2.296875 -17.5 L 9.40625 -17.5 C 11.632812 -17.5 13.363281 -16.976562 14.59375 -15.9375 C 15.832031 -14.894531 16.453125 -13.425781 16.453125 -11.53125 C 16.453125 -10.125 16.140625 -8.9375 15.515625 -7.96875 C 14.890625 -7.007812 13.992188 -6.300781 12.828125 -5.84375 L 16.75 0 Z M 5.25 -7.921875 L 9.40625 -7.921875 C 12.238281 -7.921875 13.65625 -9.097656 13.65625 -11.453125 C 13.65625 -13.710938 12.238281 -14.84375 9.40625 -14.84375 L 5.25 -14.84375 Z M 5.25 -7.921875 "/></g></g></g><g fill="rgb(0%, 0%, 0%)" fill-opacity="1"><g transform="translate(310.518495, 270.950461)"><g><path d="M 13.59375 -3.953125 L 4.78125 -3.953125 L 3.09375 0 L 0.03125 0 L 7.75 -17.5 L 10.78125 -17.5 L 18.421875 0 L 15.28125 0 Z M 12.46875 -6.578125 L 9.171875 -14.34375 L 5.875 -6.578125 Z M 12.46875 -6.578125 "/></g></g></g><g fill="rgb(0%, 0%, 0%)" fill-opacity="1"><g transform="translate(83.817561, 238.864892)"><g><path d="M 1.265625 -12.375 L 4.921875 -12.375 C 5.765625 -12.375 6.394531 -12.207031 6.8125 -11.875 C 7.238281 -11.550781 7.515625 -11.117188 7.640625 -10.578125 C 7.765625 -10.046875 7.828125 -9.347656 7.828125 -8.484375 C 7.828125 -7.648438 7.765625 -6.960938 7.640625 -6.421875 C 7.515625 -5.890625 7.238281 -5.457031 6.8125 -5.125 C 6.394531 -4.789062 5.765625 -4.625 4.921875 -4.625 L 2.609375 -4.625 L 2.609375 0 L 1.265625 0 Z M 4.5625 -5.796875 C 5.144531 -5.796875 5.566406 -5.890625 5.828125 -6.078125 C 6.097656 -6.265625 6.269531 -6.539062 6.34375 -6.90625 C 6.425781 -7.28125 6.46875 -7.804688 6.46875 -8.484375 C 6.46875 -9.179688 6.425781 -9.710938 6.34375 -10.078125 C 6.269531 -10.441406 6.101562 -10.71875 5.84375 -10.90625 C 5.582031 -11.09375 5.164062 -11.1875 4.59375 -11.1875 L 2.609375 -11.1875 L 2.609375 -5.796875 Z M 4.5625 -5.796875 "/></g></g></g><g fill="rgb(0%, 0%, 0%)" fill-opacity="1"><g transform="translate(95.449806, 238.864892)"><g><path d="M 7.171875 0 L 6.3125 -3.4375 L 2.515625 -3.4375 L 1.671875 0 L 0.328125 0 L 3.5625 -12.375 L 5.328125 -12.375 L 8.5625 0 Z M 4.453125 -10.734375 L 4.375 -10.734375 L 2.84375 -4.625 L 5.984375 -4.625 Z M 4.453125 -10.734375 "/></g></g></g><g fill="rgb(0%, 0%, 0%)" fill-opacity="1"><g transform="translate(107.603363, 238.864892)"><g><path d="M 6.71875 0 L 5.171875 -4.984375 L 2.609375 -4.984375 L 2.609375 0 L 1.265625 0 L 1.265625 -12.375 L 5.03125 -12.375 C 5.882812 -12.375 6.519531 -12.21875 6.9375 -11.90625 C 7.363281 -11.59375 7.640625 -11.175781 7.765625 -10.65625 C 7.890625 -10.144531 7.953125 -9.484375 7.953125 -8.671875 C 7.953125 -7.765625 7.859375 -7.019531 7.671875 -6.4375 C 7.484375 -5.863281 7.082031 -5.457031 6.46875 -5.21875 L 8.140625 0 Z M 4.6875 -6.15625 C 5.257812 -6.15625 5.679688 -6.242188 5.953125 -6.421875 C 6.222656 -6.597656 6.394531 -6.859375 6.46875 -7.203125 C 6.550781 -7.546875 6.59375 -8.035156 6.59375 -8.671875 C 6.59375 -9.316406 6.550781 -9.804688 6.46875 -10.140625 C 6.394531 -10.472656 6.226562 -10.726562 5.96875 -10.90625 C 5.707031 -11.09375 5.289062 -11.1875 4.71875 -11.1875 L 2.609375 -11.1875 L 2.609375 -6.15625 Z M 4.6875 -6.15625 "/></g></g></g><g fill="rgb(0%, 0%, 0%)" fill-opacity="1"><g transform="translate(119.738955, 238.864892)"><g><path d="M 6.625 -0.078125 C 6.351562 -0.015625 6.03125 0.0351562 5.65625 0.078125 C 5.28125 0.117188 4.925781 0.140625 4.59375 0.140625 C 3.507812 0.140625 2.71875 -0.0195312 2.21875 -0.34375 C 1.71875 -0.664062 1.378906 -1.253906 1.203125 -2.109375 C 1.035156 -2.972656 0.953125 -4.332031 0.953125 -6.1875 C 0.953125 -8.03125 1.035156 -9.378906 1.203125 -10.234375 C 1.378906 -11.097656 1.71875 -11.691406 2.21875 -12.015625 C 2.71875 -12.347656 3.507812 -12.515625 4.59375 -12.515625 C 4.925781 -12.515625 5.273438 -12.488281 5.640625 -12.4375 C 6.015625 -12.394531 6.320312 -12.335938 6.5625 -12.265625 L 6.5625 -11.171875 C 5.894531 -11.273438 5.332031 -11.328125 4.875 -11.328125 C 4.050781 -11.328125 3.46875 -11.21875 3.125 -11 C 2.789062 -10.789062 2.570312 -10.347656 2.46875 -9.671875 C 2.363281 -9.003906 2.3125 -7.84375 2.3125 -6.1875 C 2.3125 -4.53125 2.363281 -3.363281 2.46875 -2.6875 C 2.570312 -2.019531 2.789062 -1.578125 3.125 -1.359375 C 3.46875 -1.148438 4.050781 -1.046875 4.875 -1.046875 C 5.46875 -1.046875 6.050781 -1.097656 6.625 -1.203125 Z M 6.625 -0.078125 "/></g></g></g><g fill="rgb(0%, 0%, 0%)" fill-opacity="1"><g transform="translate(130.202722, 238.864892)"><g><path d="M 4.65625 0.140625 C 3.476562 0.140625 2.640625 -0.0195312 2.140625 -0.34375 C 1.640625 -0.664062 1.316406 -1.238281 1.171875 -2.0625 C 1.023438 -2.882812 0.953125 -4.257812 0.953125 -6.1875 C 0.953125 -8.113281 1.023438 -9.488281 1.171875 -10.3125 C 1.316406 -11.132812 1.640625 -11.707031 2.140625 -12.03125 C 2.640625 -12.351562 3.476562 -12.515625 4.65625 -12.515625 C 5.832031 -12.515625 6.671875 -12.351562 7.171875 -12.03125 C 7.679688 -11.707031 8.003906 -11.132812 8.140625 -10.3125 C 8.285156 -9.488281 8.359375 -8.113281 8.359375 -6.1875 C 8.359375 -4.257812 8.285156 -2.882812 8.140625 -2.0625 C 8.003906 -1.238281 7.679688 -0.664062 7.171875 -0.34375 C 6.671875 -0.0195312 5.832031 0.140625 4.65625 0.140625 Z M 4.65625 -1.046875 C 5.425781 -1.046875 5.957031 -1.132812 6.25 -1.3125 C 6.550781 -1.488281 6.75 -1.910156 6.84375 -2.578125 C 6.945312 -3.253906 7 -4.457031 7 -6.1875 C 7 -7.914062 6.945312 -9.113281 6.84375 -9.78125 C 6.75 -10.457031 6.550781 -10.882812 6.25 -11.0625 C 5.957031 -11.238281 5.425781 -11.328125 4.65625 -11.328125 C 3.882812 -11.328125 3.347656 -11.238281 3.046875 -11.0625 C 2.753906 -10.882812 2.554688 -10.457031 2.453125 -9.78125 C 2.359375 -9.113281 2.3125 -7.914062 2.3125 -6.1875 C 2.3125 -4.457031 2.359375 -3.253906 2.453125 -2.578125 C 2.554688 -1.910156 2.753906 -1.488281 3.046875 -1.3125 C 3.347656 -1.132812 3.882812 -1.046875 4.65625 -1.046875 Z M 4.65625 -1.046875 "/></g></g></g><g fill="rgb(0%, 0%, 0%)" fill-opacity="1"><g transform="translate(142.787721, 238.864892)"><g/></g></g><g fill="rgb(0%, 0%, 0%)" fill-opacity="1"><g transform="translate(149.512372, 238.864892)"><g><path d="M 1.265625 -12.375 L 4.203125 -12.375 C 5.398438 -12.375 6.253906 -12.21875 6.765625 -11.90625 C 7.273438 -11.59375 7.601562 -11.03125 7.75 -10.21875 C 7.90625 -9.414062 7.984375 -8.070312 7.984375 -6.1875 C 7.984375 -4.300781 7.90625 -2.953125 7.75 -2.140625 C 7.601562 -1.335938 7.273438 -0.78125 6.765625 -0.46875 C 6.253906 -0.15625 5.398438 0 4.203125 0 L 1.265625 0 Z M 4.15625 -1.1875 C 4.976562 -1.1875 5.539062 -1.269531 5.84375 -1.4375 C 6.15625 -1.613281 6.363281 -2.023438 6.46875 -2.671875 C 6.582031 -3.328125 6.640625 -4.5 6.640625 -6.1875 C 6.640625 -7.863281 6.582031 -9.03125 6.46875 -9.6875 C 6.363281 -10.34375 6.15625 -10.753906 5.84375 -10.921875 C 5.53125 -11.097656 4.96875 -11.1875 4.15625 -11.1875 L 2.59375 -11.1875 L 2.59375 -1.1875 Z M 4.15625 -1.1875 "/></g></g></g><g fill="rgb(0%, 0%, 0%)" fill-opacity="1"><g transform="translate(161.719864, 238.864892)"><g><path d="M 1.3125 0 L 1.3125 -12.375 L 2.65625 -12.375 L 2.65625 0 Z M 1.3125 0 "/></g></g></g><g fill="rgb(0%, 0%, 0%)" fill-opacity="1"><g transform="translate(168.94786, 238.864892)"><g><path d="M 4.53125 -5.4375 L 4.53125 -6.578125 L 7.671875 -6.578125 L 7.671875 -0.203125 C 7.253906 -0.0976562 6.769531 -0.015625 6.21875 0.046875 C 5.675781 0.109375 5.195312 0.140625 4.78125 0.140625 C 3.6875 0.140625 2.875 -0.015625 2.34375 -0.328125 C 1.820312 -0.648438 1.457031 -1.25 1.25 -2.125 C 1.050781 -3 0.953125 -4.351562 0.953125 -6.1875 C 0.953125 -8 1.050781 -9.34375 1.25 -10.21875 C 1.457031 -11.09375 1.820312 -11.691406 2.34375 -12.015625 C 2.875 -12.347656 3.691406 -12.515625 4.796875 -12.515625 C 5.273438 -12.515625 5.785156 -12.476562 6.328125 -12.40625 C 6.878906 -12.332031 7.316406 -12.253906 7.640625 -12.171875 L 7.640625 -11.0625 C 7.316406 -11.132812 6.921875 -11.195312 6.453125 -11.25 C 5.992188 -11.300781 5.628906 -11.328125 5.359375 -11.328125 C 4.390625 -11.328125 3.710938 -11.238281 3.328125 -11.0625 C 2.941406 -10.882812 2.675781 -10.453125 2.53125 -9.765625 C 2.382812 -9.078125 2.3125 -7.882812 2.3125 -6.1875 C 2.3125 -4.625 2.363281 -3.5 2.46875 -2.8125 C 2.582031 -2.125 2.804688 -1.65625 3.140625 -1.40625 C 3.484375 -1.15625 4.035156 -1.03125 4.796875 -1.03125 C 5.421875 -1.03125 5.941406 -1.078125 6.359375 -1.171875 L 6.359375 -5.4375 Z M 4.53125 -5.4375 "/></g></g></g><g fill="rgb(0%, 0%, 0%)" fill-opacity="1"><g transform="translate(180.903679, 238.864892)"><g><path d="M 1.3125 0 L 1.3125 -12.375 L 2.65625 -12.375 L 2.65625 0 Z M 1.3125 0 "/></g></g></g><g fill="rgb(0%, 0%, 0%)" fill-opacity="1"><g transform="translate(188.131676, 238.864892)"><g><path d="M 3.046875 0 L 3.046875 -11.15625 L 0.28125 -11.15625 L 0.28125 -12.375 L 7.140625 -12.375 L 7.140625 -11.15625 L 4.390625 -11.15625 L 4.390625 0 Z M 3.046875 0 "/></g></g></g><g fill="rgb(0%, 0%, 0%)" fill-opacity="1"><g transform="translate(198.829143, 238.864892)"><g><path d="M 7.171875 0 L 6.3125 -3.4375 L 2.515625 -3.4375 L 1.671875 0 L 0.328125 0 L 3.5625 -12.375 L 5.328125 -12.375 L 8.5625 0 Z M 4.453125 -10.734375 L 4.375 -10.734375 L 2.84375 -4.625 L 5.984375 -4.625 Z M 4.453125 -10.734375 "/></g></g></g><g fill="rgb(0%, 0%, 0%)" fill-opacity="1"><g transform="translate(210.982699, 238.864892)"><g><path d="M 1.265625 0 L 1.265625 -12.375 L 2.609375 -12.375 L 2.609375 -1.21875 L 6.59375 -1.21875 L 6.59375 0 Z M 1.265625 0 "/></g></g></g><g fill="rgb(0%, 0%, 0%)" fill-opacity="1"><g transform="translate(221.06896, 238.864892)"><g><path d="M 1.265625 0 L 1.265625 -12.375 L 7.109375 -12.375 L 7.109375 -11.1875 L 2.609375 -11.1875 L 2.609375 -6.859375 L 6.515625 -6.859375 L 6.515625 -5.671875 L 2.609375 -5.671875 L 2.609375 -1.1875 L 7.109375 -1.1875 L 7.109375 0 Z M 1.265625 0 "/></g></g></g><g fill="rgb(0%, 0%, 0%)" fill-opacity="1"><g transform="translate(232.125955, 238.864892)"><g/></g></g><g fill="rgb(0%, 0%, 0%)" fill-opacity="1"><g transform="translate(238.850605, 238.864892)"><g><path d="M 1.265625 -12.375 L 4.203125 -12.375 C 5.398438 -12.375 6.253906 -12.21875 6.765625 -11.90625 C 7.273438 -11.59375 7.601562 -11.03125 7.75 -10.21875 C 7.90625 -9.414062 7.984375 -8.070312 7.984375 -6.1875 C 7.984375 -4.300781 7.90625 -2.953125 7.75 -2.140625 C 7.601562 -1.335938 7.273438 -0.78125 6.765625 -0.46875 C 6.253906 -0.15625 5.398438 0 4.203125 0 L 1.265625 0 Z M 4.15625 -1.1875 C 4.976562 -1.1875 5.539062 -1.269531 5.84375 -1.4375 C 6.15625 -1.613281 6.363281 -2.023438 6.46875 -2.671875 C 6.582031 -3.328125 6.640625 -4.5 6.640625 -6.1875 C 6.640625 -7.863281 6.582031 -9.03125 6.46875 -9.6875 C 6.363281 -10.34375 6.15625 -10.753906 5.84375 -10.921875 C 5.53125 -11.097656 4.96875 -11.1875 4.15625 -11.1875 L 2.59375 -11.1875 L 2.59375 -1.1875 Z M 4.15625 -1.1875 "/></g></g></g><g fill="rgb(0%, 0%, 0%)" fill-opacity="1"><g transform="translate(251.058097, 238.864892)"><g><path d="M 1.265625 0 L 1.265625 -12.375 L 7.109375 -12.375 L 7.109375 -11.1875 L 2.609375 -11.1875 L 2.609375 -6.859375 L 6.515625 -6.859375 L 6.515625 -5.671875 L 2.609375 -5.671875 L 2.609375 -1.1875 L 7.109375 -1.1875 L 7.109375 0 Z M 1.265625 0 "/></g></g></g><g fill="rgb(0%, 0%, 0%)" fill-opacity="1"><g transform="translate(262.115092, 238.864892)"><g><path d="M 1.265625 0 L 1.265625 -12.375 L 2.609375 -12.375 L 2.609375 -1.21875 L 6.59375 -1.21875 L 6.59375 0 Z M 1.265625 0 "/></g></g></g><g fill="rgb(0%, 0%, 0%)" fill-opacity="1"><g transform="translate(272.201353, 238.864892)"><g><path d="M 1.265625 0 L 1.265625 -12.375 L 2.609375 -12.375 L 2.609375 -1.21875 L 6.59375 -1.21875 L 6.59375 0 Z M 1.265625 0 "/></g></g></g><g fill="rgb(0%, 0%, 0%)" fill-opacity="1"><g transform="translate(282.287626, 238.864892)"><g><path d="M 7.171875 0 L 6.3125 -3.4375 L 2.515625 -3.4375 L 1.671875 0 L 0.328125 0 L 3.5625 -12.375 L 5.328125 -12.375 L 8.5625 0 Z M 4.453125 -10.734375 L 4.375 -10.734375 L 2.84375 -4.625 L 5.984375 -4.625 Z M 4.453125 -10.734375 "/></g></g></g></svg>